<?xml version="1.0" encoding="UTF-8"?>
<svg id="Camada_2" data-name="Camada 2" xmlns="http://www.w3.org/2000/svg" xmlns:xlink="http://www.w3.org/1999/xlink" viewBox="0 0 3803.69 3848.86">
  <defs>
    <style>
      .cls-1 {
        fill: #fff;
      }

      .cls-2 {
        fill: url(#Gradiente_sem_nome_31);
      }
    </style>
    <linearGradient id="Gradiente_sem_nome_31" data-name="Gradiente sem nome 31" x1="1892.3" y1="3776.25" x2="1912.62" y2="-166.56" gradientUnits="userSpaceOnUse">
      <stop offset="0" stop-color="#321d44"/>
      <stop offset=".22" stop-color="#4a2057"/>
      <stop offset=".67" stop-color="#882b89"/>
      <stop offset="1" stop-color="#b833b0"/>
    </linearGradient>
  </defs>
  <g id="Camada_1-2" data-name="Camada 1">
    <g>
      <rect class="cls-2" x="0" y="0" width="3803.69" height="3848.86" rx="442.99" ry="442.99"/>
      <g>
        <path class="cls-1" d="m3181.83,1846.81s41.05-34.73,48.42,26.31c7.37,61.05-48.42,502.05-64.2,510.47-15.79,8.42-199.98-110.51-355.75-124.2-155.77-13.68-201.03-22.1-204.19-22.1s-36.84-42.1,21.05-90.52c57.89-48.42,421-259.97,554.67-299.96Z"/>
        <path class="cls-1" d="m2578.68,1942.67c.74.85,1.56,1.5,2.46,1.94,38,18.39,96.27-38.28,129.01-51.97,52.36-21.89,103.98-45.88,151.97-76.33,91.08-57.78,173.08-132.91,223.58-229.42,16.77-32.06,29.34-66.3,36.47-101.79,0,0,22.45,29.47-47.71-131.91-70.17-161.38-307.33-435.04-428.02-471.52,0,0-22.45-9.82-43.5,71.57-21.05,81.39-63.15,224.54-79.99,286.28-16.84,61.75-23.86,310.14,15.44,411.19,18.16,46.7,31.39,95.67,38.9,145.22,3.65,24.13-14.11,128.95,1.39,146.76Z"/>
        <path class="cls-1" d="m2251.41,1071.11s69.47,69.47,133.67,0c0,0,88.41-224.18,111.57-245.23,23.16-21.05,5.26-41.05-46.31-58.94-51.57-17.89-267.34-133.67-557.83-103.15-290.49,30.52-455.74,101.04-605.19,189.45-149.46,88.41-303.12,227.34-445.21,453.63,0,0-78.94,139.98-99.99,214.71,0,0,642.03-102.09,788.33-113.67,146.3-11.58,157.88,10.53,152.61-47.36-5.26-57.89,8.42-223.13,168.4-191.56,0,0,25.26-181.03,219.97-168.4,0,0,48.42-18.95,179.98,70.52Z"/>
        <path class="cls-1" d="m679.16,1788c.06-.06.12-.12.17-.17,5.34-4.98,30.41-1.58,37.83-1.79,15.15-.43,30.3-.85,45.45-1.27,116.52-3.22,233.06-6.07,349.62-6.33,5.83-.01,11.66-.02,17.5-.02,115.74.79,232.9,2.27,347.73,18.21,252.6,35.08,443.46,47.71,515.03,186.64,0,0,48.65,75.78-219.86,150.16-268.5,74.38-775.11,499.59-862.12,597.82-3.62,4.09-58.46-54.78-61.2-58.03-52.14-61.9-89.06-135.98-115.92-211.92-47.61-134.61-64.78-278.9-66.76-421.07-.79-56.72.93-113.46,4.82-170.04.95-13.86,2.03-27.71,3.24-41.54.69-7.89-1.1-34.88,4.47-40.66Z"/>
        <path class="cls-1" d="m2950.27,2559.35c-25.79-32.63-139.98-93.15-252.08-132.09-112.09-38.94-367.33-70.52-367.33-70.52,11.58-30,31.58-86.83,51.57-139.46,20-52.63,45.78-336.28,45.78-336.28,0,0,50.52-19.47,33.15-112.62-14.68-78.73-151.91-178.88-194.04-208,30.8,153.08-80.08,250.32-147.56,294.1,38.32,80.87,37.85,197.9,29.89,238.96-9.12,47.01-88.41,126.3-127,141.74-38.59,15.44-107.36,68.06-129.81,143.14-22.45,75.08-38.59,96.83-38.59,96.83-50.52,67.36-383.81,311.54-383.81,311.54-58.94.7-143.14,10.53-214.71,33.68-55.92,18.09-187.34,121-242.14,165.14-.69.24-7.78,5.38-27.3,20.1-60.32,45.51-114.2,31.58-114.2,31.58-78.41-69.99-108.41,43.68-108.41,43.68-8.42,30.52-40,66.31-58.41,85.25-18.42,18.95-89.46,52.63-107.36,63.68-17.89,11.05-40.52,58.41-10.53,58.41s138.4-25.79,226.29-66.31c87.88-40.52,196.82-101.04,196.82-101.04,191.56-85.25,296.81-109.46,358.91-141.56,62.1-32.1,201.03-35.79,204.71-35.79,112.99,0,290.49-127.88,372.06-184.72,81.57-56.84,182.08-114.72,182.08-114.72,130.51,56.31,466.26,15.26,466.26,15.26-53.15,5.26-294.7,227.34-294.7,227.34-62.62,50.52-97.36.53-97.36.53-46.31-26.31-73.15,6.31-77.89,13.16-4.74,6.84,3.16,29.47-22.63,88.94-25.79,59.47-153.14,117.88-154.19,119.99-1.05,2.11,0,0-7.89,17.37s-1.58,43.15,35.79,24.73c37.36-18.42,152.09-47.89,173.66-50.52,81.7-9.96,322.59-167.88,363.64-188.4,41.05-20.52,341.54-165.77,410.48-197.35,68.94-31.58,52.63-123.14,26.84-155.77Z"/>
        <path class="cls-1" d="m939.46,1667.24c66.83-41.05,123.14-26.84,123.14-26.84,94.73,3.68-32.1,26.84-32.1,26.84-42.1,10.53-10,26.31-10,26.31,36.84-12.63,66.83-14.74,66.83-14.74,85.25-4.21,117.18-66.83,117.18-66.83,25.26-5.96,59.64-2.46,59.64-2.46,232.25,67.36,407.67,40.7,407.67,40.7,11.23-10.52,61.05-11.23,61.05-11.23,46.31,27.37,230.85,26.66,230.85,26.66,32.98,16.84,79.29,79.29,136.83,157.17,7.29,9.87,13.67,20.85,19.23,32.59,67.48-43.78,178.36-141.02,147.56-294.1-7.72-5.33-12.25-8.29-12.25-8.29-34.73-65.26-22.63-156.3-22.63-156.3,39.47-37.89,62.1-42.1,62.1-42.1,47.89-18.42,27.37-34.21,27.37-34.21l-40-77.89c22.1-21.05,12.1-33.68,12.1-33.68,0,0-42.63-14.74-68.41-11.58-25.79,3.16-25.79-38.94-25.79-38.94-51.57-69.47-143.67-45.26-182.61-33.68-38.94,11.58-96.83,82.1-103.15,123.67-6.31,41.57-23.68,28.94-23.68,28.94-17.37-33.15-63.68-16.31-63.68-16.31-53.15,14.21-31.58,98.01-31.58,98.01,48.42,62.75,102.09,15.66,102.09,15.66,21.05-28.42,25.79-9.47,25.79-9.47,35.26,82.62,134.19,84.2,158.93,83.15,24.73-1.05,10,54.73,10,54.73-27.89-7.37-66.83-5.26-108.41,3.16-41.57,8.42-127.35,15.79-204.71,22.1-77.36,6.31-74.2,0-93.67,0s-338.91,18.94-474.16,30c-135.25,11.05-292.6,83.67-292.6,83.67-36.31,27.37,21.05,25.26,21.05,25.26Z"/>
      </g>
    </g>
  </g>
</svg>